<mxfile host="app.diagrams.net" agent="Mozilla/5.0 (Windows NT 10.0; Win64; x64) AppleWebKit/537.36 (KHTML, like Gecko) Chrome/126.0.0.0 Safari/537.36" version="24.7.4" pages="2">
  <diagram name="Halaman-1" id="hggTRoiEV7WK6FwwyZdA">
    <mxGraphModel dx="880" dy="460" grid="1" gridSize="10" guides="1" tooltips="1" connect="1" arrows="1" fold="1" page="1" pageScale="1" pageWidth="827" pageHeight="1169" math="0" shadow="0">
      <root>
        <mxCell id="0" />
        <mxCell id="1" parent="0" />
        <mxCell id="iYwkVImTOGf3zlu7L07m-1" value="Halaman utama" style="rounded=0;whiteSpace=wrap;html=1;" vertex="1" parent="1">
          <mxGeometry x="40" y="40" width="130" height="50" as="geometry" />
        </mxCell>
        <mxCell id="iYwkVImTOGf3zlu7L07m-2" value="" style="endArrow=classic;html=1;rounded=0;exitX=0.5;exitY=1;exitDx=0;exitDy=0;" edge="1" parent="1" source="iYwkVImTOGf3zlu7L07m-1">
          <mxGeometry width="50" height="50" relative="1" as="geometry">
            <mxPoint x="390" y="270" as="sourcePoint" />
            <mxPoint x="105" y="150" as="targetPoint" />
            <Array as="points">
              <mxPoint x="105" y="110" />
            </Array>
          </mxGeometry>
        </mxCell>
        <mxCell id="iYwkVImTOGf3zlu7L07m-3" value="Pendaptaran/Login" style="rounded=0;whiteSpace=wrap;html=1;" vertex="1" parent="1">
          <mxGeometry x="40" y="160" width="130" height="50" as="geometry" />
        </mxCell>
        <mxCell id="iYwkVImTOGf3zlu7L07m-4" value="" style="endArrow=classic;html=1;rounded=0;exitX=0.5;exitY=1;exitDx=0;exitDy=0;" edge="1" parent="1" source="iYwkVImTOGf3zlu7L07m-3">
          <mxGeometry width="50" height="50" relative="1" as="geometry">
            <mxPoint x="100" y="230" as="sourcePoint" />
            <mxPoint x="105" y="290" as="targetPoint" />
            <Array as="points" />
          </mxGeometry>
        </mxCell>
        <mxCell id="iYwkVImTOGf3zlu7L07m-5" value="Propil pengguna" style="rounded=0;whiteSpace=wrap;html=1;" vertex="1" parent="1">
          <mxGeometry x="40" y="300" width="130" height="50" as="geometry" />
        </mxCell>
        <mxCell id="iYwkVImTOGf3zlu7L07m-6" value="" style="endArrow=classic;html=1;rounded=0;exitX=0.5;exitY=1;exitDx=0;exitDy=0;" edge="1" parent="1" source="iYwkVImTOGf3zlu7L07m-5">
          <mxGeometry width="50" height="50" relative="1" as="geometry">
            <mxPoint x="100" y="360" as="sourcePoint" />
            <mxPoint x="105" y="430" as="targetPoint" />
            <Array as="points" />
          </mxGeometry>
        </mxCell>
        <mxCell id="iYwkVImTOGf3zlu7L07m-7" value="Pencatatan makanan" style="rounded=0;whiteSpace=wrap;html=1;" vertex="1" parent="1">
          <mxGeometry x="40" y="440" width="130" height="50" as="geometry" />
        </mxCell>
        <mxCell id="iYwkVImTOGf3zlu7L07m-8" value="" style="endArrow=classic;html=1;rounded=0;exitX=1;exitY=0.5;exitDx=0;exitDy=0;" edge="1" parent="1" source="iYwkVImTOGf3zlu7L07m-7">
          <mxGeometry width="50" height="50" relative="1" as="geometry">
            <mxPoint x="390" y="410" as="sourcePoint" />
            <mxPoint x="250" y="465" as="targetPoint" />
          </mxGeometry>
        </mxCell>
        <mxCell id="iYwkVImTOGf3zlu7L07m-9" value="Rencana diet" style="rounded=0;whiteSpace=wrap;html=1;" vertex="1" parent="1">
          <mxGeometry x="260" y="440" width="130" height="50" as="geometry" />
        </mxCell>
        <mxCell id="iYwkVImTOGf3zlu7L07m-10" value="" style="endArrow=classic;html=1;rounded=0;exitX=1;exitY=0.5;exitDx=0;exitDy=0;" edge="1" parent="1" source="iYwkVImTOGf3zlu7L07m-9">
          <mxGeometry width="50" height="50" relative="1" as="geometry">
            <mxPoint x="400" y="460" as="sourcePoint" />
            <mxPoint x="470" y="465" as="targetPoint" />
          </mxGeometry>
        </mxCell>
        <mxCell id="iYwkVImTOGf3zlu7L07m-11" value="Pelacak kemajuan&amp;nbsp;" style="rounded=0;whiteSpace=wrap;html=1;" vertex="1" parent="1">
          <mxGeometry x="480" y="440" width="130" height="50" as="geometry" />
        </mxCell>
        <mxCell id="iYwkVImTOGf3zlu7L07m-12" value="" style="endArrow=classic;html=1;rounded=0;exitX=0.5;exitY=1;exitDx=0;exitDy=0;" edge="1" parent="1" source="iYwkVImTOGf3zlu7L07m-7">
          <mxGeometry width="50" height="50" relative="1" as="geometry">
            <mxPoint x="100" y="510" as="sourcePoint" />
            <mxPoint x="105" y="570" as="targetPoint" />
            <Array as="points" />
          </mxGeometry>
        </mxCell>
        <mxCell id="iYwkVImTOGf3zlu7L07m-13" value="Tips dan Artikel" style="rounded=0;whiteSpace=wrap;html=1;" vertex="1" parent="1">
          <mxGeometry x="40" y="584.5" width="130" height="50" as="geometry" />
        </mxCell>
        <mxCell id="iYwkVImTOGf3zlu7L07m-14" value="" style="endArrow=classic;html=1;rounded=0;exitX=0.5;exitY=1;exitDx=0;exitDy=0;" edge="1" parent="1" source="iYwkVImTOGf3zlu7L07m-9">
          <mxGeometry width="50" height="50" relative="1" as="geometry">
            <mxPoint x="330" y="510" as="sourcePoint" />
            <mxPoint x="325" y="570" as="targetPoint" />
            <Array as="points" />
          </mxGeometry>
        </mxCell>
        <mxCell id="iYwkVImTOGf3zlu7L07m-15" value="Pengaturan" style="rounded=0;whiteSpace=wrap;html=1;" vertex="1" parent="1">
          <mxGeometry x="260" y="585" width="130" height="50" as="geometry" />
        </mxCell>
      </root>
    </mxGraphModel>
  </diagram>
  <diagram id="gGvLPdZm9kxH1wlsG70u" name="Halaman-2">
    <mxGraphModel dx="880" dy="1629" grid="1" gridSize="10" guides="1" tooltips="1" connect="1" arrows="1" fold="1" page="1" pageScale="1" pageWidth="827" pageHeight="1169" math="0" shadow="0">
      <root>
        <mxCell id="0" />
        <mxCell id="1" parent="0" />
        <mxCell id="-SBpnoFTPFkHYDSY3WXS-4" value="Pengguna" style="shape=umlActor;verticalLabelPosition=bottom;verticalAlign=top;html=1;outlineConnect=0;" vertex="1" parent="1">
          <mxGeometry x="100" y="120" width="70" height="130" as="geometry" />
        </mxCell>
        <mxCell id="-SBpnoFTPFkHYDSY3WXS-7" value="Admin" style="shape=umlActor;verticalLabelPosition=bottom;verticalAlign=top;html=1;outlineConnect=0;" vertex="1" parent="1">
          <mxGeometry x="630" y="120" width="70" height="130" as="geometry" />
        </mxCell>
        <mxCell id="-SBpnoFTPFkHYDSY3WXS-18" value="" style="rounded=0;whiteSpace=wrap;html=1;rotation=90;" vertex="1" parent="1">
          <mxGeometry x="100.55" y="155.22" width="578.93" height="210" as="geometry" />
        </mxCell>
        <mxCell id="-SBpnoFTPFkHYDSY3WXS-2" value="Diet App" style="text;html=1;align=center;verticalAlign=middle;whiteSpace=wrap;rounded=0;" vertex="1" parent="1">
          <mxGeometry x="357.5" y="-20" width="60" height="30" as="geometry" />
        </mxCell>
        <mxCell id="-SBpnoFTPFkHYDSY3WXS-6" value="Login" style="ellipse;whiteSpace=wrap;html=1;" vertex="1" parent="1">
          <mxGeometry x="330" y="70" width="110" height="50" as="geometry" />
        </mxCell>
        <mxCell id="-SBpnoFTPFkHYDSY3WXS-10" value="" style="endArrow=classic;html=1;rounded=0;entryX=0;entryY=0.5;entryDx=0;entryDy=0;" edge="1" parent="1" target="-SBpnoFTPFkHYDSY3WXS-6">
          <mxGeometry width="50" height="50" relative="1" as="geometry">
            <mxPoint x="160" y="200" as="sourcePoint" />
            <mxPoint x="300" y="200" as="targetPoint" />
          </mxGeometry>
        </mxCell>
        <mxCell id="-SBpnoFTPFkHYDSY3WXS-3" value="Mendaftar" style="ellipse;whiteSpace=wrap;html=1;" vertex="1" parent="1">
          <mxGeometry x="330" y="128" width="110" height="50" as="geometry" />
        </mxCell>
        <mxCell id="-SBpnoFTPFkHYDSY3WXS-9" value="" style="endArrow=classic;html=1;rounded=0;entryX=0;entryY=0.5;entryDx=0;entryDy=0;" edge="1" parent="1" target="-SBpnoFTPFkHYDSY3WXS-3">
          <mxGeometry width="50" height="50" relative="1" as="geometry">
            <mxPoint x="160" y="200" as="sourcePoint" />
            <mxPoint x="440" y="320" as="targetPoint" />
          </mxGeometry>
        </mxCell>
        <mxCell id="-SBpnoFTPFkHYDSY3WXS-8" value="Propil" style="ellipse;whiteSpace=wrap;html=1;" vertex="1" parent="1">
          <mxGeometry x="330" y="187" width="110" height="50" as="geometry" />
        </mxCell>
        <mxCell id="-SBpnoFTPFkHYDSY3WXS-11" value="" style="endArrow=classic;html=1;rounded=0;entryX=0;entryY=0.5;entryDx=0;entryDy=0;" edge="1" parent="1" target="-SBpnoFTPFkHYDSY3WXS-8">
          <mxGeometry width="50" height="50" relative="1" as="geometry">
            <mxPoint x="160" y="200" as="sourcePoint" />
            <mxPoint x="343" y="300" as="targetPoint" />
          </mxGeometry>
        </mxCell>
        <mxCell id="-SBpnoFTPFkHYDSY3WXS-12" value="Makanan&amp;nbsp;" style="ellipse;whiteSpace=wrap;html=1;" vertex="1" parent="1">
          <mxGeometry x="328.5" y="246" width="113" height="54" as="geometry" />
        </mxCell>
        <mxCell id="-SBpnoFTPFkHYDSY3WXS-14" value="" style="endArrow=classic;html=1;rounded=0;entryX=0;entryY=0.5;entryDx=0;entryDy=0;" edge="1" parent="1" target="-SBpnoFTPFkHYDSY3WXS-12">
          <mxGeometry width="50" height="50" relative="1" as="geometry">
            <mxPoint x="160" y="200" as="sourcePoint" />
            <mxPoint x="347" y="398" as="targetPoint" />
          </mxGeometry>
        </mxCell>
        <mxCell id="-SBpnoFTPFkHYDSY3WXS-13" value="Rencana diet" style="ellipse;whiteSpace=wrap;html=1;" vertex="1" parent="1">
          <mxGeometry x="330" y="310" width="113" height="48" as="geometry" />
        </mxCell>
        <mxCell id="-SBpnoFTPFkHYDSY3WXS-15" value="" style="endArrow=classic;html=1;rounded=0;entryX=0;entryY=0.5;entryDx=0;entryDy=0;" edge="1" parent="1" target="-SBpnoFTPFkHYDSY3WXS-13">
          <mxGeometry width="50" height="50" relative="1" as="geometry">
            <mxPoint x="160" y="200" as="sourcePoint" />
            <mxPoint x="357" y="408" as="targetPoint" />
          </mxGeometry>
        </mxCell>
        <mxCell id="-SBpnoFTPFkHYDSY3WXS-19" value="Kemajuan" style="ellipse;whiteSpace=wrap;html=1;" vertex="1" parent="1">
          <mxGeometry x="331" y="367" width="113" height="48" as="geometry" />
        </mxCell>
        <mxCell id="-SBpnoFTPFkHYDSY3WXS-20" value="" style="endArrow=classic;html=1;rounded=0;entryX=0;entryY=0.5;entryDx=0;entryDy=0;" edge="1" parent="1">
          <mxGeometry width="50" height="50" relative="1" as="geometry">
            <mxPoint x="160" y="200" as="sourcePoint" />
            <mxPoint x="330" y="392" as="targetPoint" />
          </mxGeometry>
        </mxCell>
        <mxCell id="-SBpnoFTPFkHYDSY3WXS-22" value="Tips dan Artikel" style="ellipse;whiteSpace=wrap;html=1;" vertex="1" parent="1">
          <mxGeometry x="333" y="422" width="113" height="48" as="geometry" />
        </mxCell>
        <mxCell id="-SBpnoFTPFkHYDSY3WXS-23" value="" style="endArrow=classic;html=1;rounded=0;entryX=0;entryY=0.5;entryDx=0;entryDy=0;" edge="1" parent="1" target="-SBpnoFTPFkHYDSY3WXS-22">
          <mxGeometry width="50" height="50" relative="1" as="geometry">
            <mxPoint x="160" y="200" as="sourcePoint" />
            <mxPoint x="340" y="402" as="targetPoint" />
          </mxGeometry>
        </mxCell>
        <mxCell id="-SBpnoFTPFkHYDSY3WXS-24" value="Pengaturan" style="ellipse;whiteSpace=wrap;html=1;" vertex="1" parent="1">
          <mxGeometry x="334" y="478" width="113" height="48" as="geometry" />
        </mxCell>
        <mxCell id="-SBpnoFTPFkHYDSY3WXS-25" value="" style="endArrow=classic;html=1;rounded=0;entryX=0;entryY=0.5;entryDx=0;entryDy=0;" edge="1" parent="1" target="-SBpnoFTPFkHYDSY3WXS-24">
          <mxGeometry width="50" height="50" relative="1" as="geometry">
            <mxPoint x="160" y="200" as="sourcePoint" />
            <mxPoint x="343" y="456" as="targetPoint" />
          </mxGeometry>
        </mxCell>
        <mxCell id="-SBpnoFTPFkHYDSY3WXS-27" value="Pengguna" style="ellipse;whiteSpace=wrap;html=1;" vertex="1" parent="1">
          <mxGeometry x="330" y="13" width="110" height="50" as="geometry" />
        </mxCell>
        <mxCell id="-SBpnoFTPFkHYDSY3WXS-29" value="" style="endArrow=classic;html=1;rounded=0;entryX=1;entryY=0.5;entryDx=0;entryDy=0;" edge="1" parent="1" target="-SBpnoFTPFkHYDSY3WXS-22">
          <mxGeometry width="50" height="50" relative="1" as="geometry">
            <mxPoint x="630" y="200" as="sourcePoint" />
            <mxPoint x="400" y="130" as="targetPoint" />
          </mxGeometry>
        </mxCell>
        <mxCell id="-SBpnoFTPFkHYDSY3WXS-30" value="" style="endArrow=classic;html=1;rounded=0;entryX=1;entryY=0.5;entryDx=0;entryDy=0;" edge="1" parent="1" target="-SBpnoFTPFkHYDSY3WXS-27">
          <mxGeometry width="50" height="50" relative="1" as="geometry">
            <mxPoint x="630" y="200" as="sourcePoint" />
            <mxPoint x="456" y="456" as="targetPoint" />
          </mxGeometry>
        </mxCell>
        <mxCell id="-SBpnoFTPFkHYDSY3WXS-31" value="" style="endArrow=classic;html=1;rounded=0;entryX=0;entryY=0.5;entryDx=0;entryDy=0;" edge="1" parent="1" target="-SBpnoFTPFkHYDSY3WXS-27">
          <mxGeometry width="50" height="50" relative="1" as="geometry">
            <mxPoint x="160" y="200" as="sourcePoint" />
            <mxPoint x="400" y="190" as="targetPoint" />
          </mxGeometry>
        </mxCell>
      </root>
    </mxGraphModel>
  </diagram>
</mxfile>
